<svg xmlns="http://www.w3.org/2000/svg" xmlns:svg="http://www.w3.org/2000/svg" xmlns:xlink="http://www.w3.org/1999/xlink" id="svg57" width="128" height="128" version="1.1" viewBox="0 0 100 100"><metadata id="metadata61"/><defs id="defs45"><linearGradient id="Gradient_1" x1="50" x2="50" y1="53" y2="0" gradientUnits="userSpaceOnUse" spreadMethod="pad"><stop id="stop2" offset="0%" stop-color="#FFF" stop-opacity=".1"/><stop id="stop4" offset="100%" stop-color="#FFF" stop-opacity=".4"/></linearGradient><linearGradient id="Gradient_2" x1="100" x2="0" y1="50" y2="50" gradientUnits="userSpaceOnUse" spreadMethod="pad"><stop id="stop7" offset="0%" stop-color="#FFF" stop-opacity=".1"/><stop id="stop9" offset="100%" stop-color="#FFF" stop-opacity=".4"/></linearGradient><linearGradient id="Gradient_3" x1="0" x2="100" y1="50" y2="50" gradientUnits="userSpaceOnUse" spreadMethod="pad"><stop id="stop12" offset="0%" stop-color="#FFF" stop-opacity=".1"/><stop id="stop14" offset="100%" stop-color="#FFF" stop-opacity=".4"/></linearGradient><g id="background"><path id="path17" fill="url(#background-gradient)" stroke="none" d="M 0 0 L 0 100 100 100 100 0 0 0 Z"/></g><mask id="mask"><path id="path20" fill="#FFF" stroke="none" d="M 0 0 L 0 100 100 100 100 0 0 0 Z"/></mask><g id="gloss-top"><path id="path23" fill="url(#Gradient_1)" stroke="none" d="M 100 53.1 L 100 0 0 0 0 53.1 100 53.1 Z"/></g><g id="gloss-right"><path id="path26" fill="url(#Gradient_2)" stroke="none" d="M 100 100 L 100 0 0 0 100 100 Z"/></g><g id="gloss-left"><path id="path29" fill="url(#Gradient_3)" stroke="none" d="M 0 0 L 0 100 100 0 0 0 Z"/></g><linearGradient id="background-gradient" x1="0" x2="0" y1="0" y2="1"><stop id="stop32" offset="0%" stop-color="#589632"/><stop id="stop34" offset="100%" stop-color="#9DDA77"/></linearGradient><g id="picture" transform="scale(2.0746887638410394) translate(0 0.049999237060546875)"><path id="path37" d="M47.4 42.1L34.8 29.4c2-3.1 3.1-6.7 3.1-10.4 0-5.1-2-9.8-5.5-13.4C28.8 2 24 0 18.9 0 8.5 0 0 8.5 0 18.9c0 10.4 8.5 18.9 18.9 18.9 3.8 0 7.4-1.1 10.4-3.1L42 47.4c.7.7 1.9.7 2.7 0l2.7-2.7c.8-.7.8-1.9 0-2.6zM28.8 28.8c-2.6 2.6-6.1 4.1-9.8 4.1-7.7 0-13.9-6.2-13.9-13.9S11.3 5.1 19 5.1c3.7 0 7.2 1.4 9.8 4.1 2.6 2.6 4.1 6.1 4.1 9.8-.1 3.6-1.5 7.1-4.1 9.8z"/></g><linearGradient id="picture-gradient" x1="0" x2="0" y1="0" y2="1"><stop id="stop40" offset="0%" stop-color="#fff"/><stop id="stop42" offset="100%" stop-color="#e5eff9"/></linearGradient></defs><use id="use47" fill="url(#background-gradient)" xlink:href="#background"/><g id="g53" mask="url(#mask)"><g id="g51" transform="translate( 50 50 ) translate(0 0) scale(0.84) scale(-1 1) translate( -50 -50 )"><use id="use49" fill="url(#picture-gradient)" xlink:href="#picture"/></g></g><use id="use55" opacity="1" xlink:href="#gloss-left"/><path style="fill:#fff;stroke:none;stroke-width:.78125px;stroke-linecap:butt;stroke-linejoin:miter;stroke-opacity:1;fill-opacity:1" id="path5487" d="M 0,0 33.333333,6.25 66.666666,-0.10593231 100,6.25 V 0 Z"/><path style="fill:#fff;stroke:none;stroke-width:.78125px;stroke-linecap:butt;stroke-linejoin:miter;stroke-opacity:1;fill-opacity:1" id="path5489" d="M 0,90.625 33.333333,100 66.666666,90.625 100,100 H 0 Z"/><flowRoot id="flowRoot196" transform="scale(0.78125)" xml:space="preserve" style="font-style:normal;font-weight:400;font-size:40px;line-height:1.25;font-family:sans-serif;letter-spacing:0;word-spacing:0;fill:#000;fill-opacity:1;stroke:none"><flowRegion id="flowRegion198"><rect id="rect200" width="506.576" height="60" x="159.458" y="44"/></flowRegion><flowPara id="flowPara202">QuickOSM</flowPara></flowRoot></svg>