<svg xmlns="http://www.w3.org/2000/svg" xmlns:svg="http://www.w3.org/2000/svg" xmlns:xlink="http://www.w3.org/1999/xlink" id="svg57" width="148mm" height="105mm" version="1.1" viewBox="0 0 437.008 310.039"><metadata id="metadata61"/><defs id="defs45"><linearGradient id="Gradient_1" x1="50" x2="50" y1="53" y2="0" gradientUnits="userSpaceOnUse" spreadMethod="pad"><stop id="stop2" offset="0%" stop-color="#FFF" stop-opacity=".1"/><stop id="stop4" offset="100%" stop-color="#FFF" stop-opacity=".4"/></linearGradient><linearGradient id="Gradient_2" x1="100" x2="0" y1="50" y2="50" gradientUnits="userSpaceOnUse" spreadMethod="pad"><stop id="stop7" offset="0%" stop-color="#FFF" stop-opacity=".1"/><stop id="stop9" offset="100%" stop-color="#FFF" stop-opacity=".4"/></linearGradient><linearGradient id="Gradient_3" x1="0" x2="100" y1="50" y2="50" gradientUnits="userSpaceOnUse" spreadMethod="pad"><stop id="stop12" offset="0%" stop-color="#FFF" stop-opacity=".1"/><stop id="stop14" offset="100%" stop-color="#FFF" stop-opacity=".4"/></linearGradient><g id="background"><path id="path17" d="M 0,0 V 100 H 100 V 0 Z" style="fill:url(#background-gradient);stroke:none"/></g><mask id="mask"><path id="path20" d="M 0,0 V 100 H 100 V 0 Z" style="fill:#fff;stroke:none"/></mask><g id="gloss-top"><path id="path23" d="M 100,53.1 V 0 H 0 v 53.1 z" style="fill:url(#Gradient_1);stroke:none"/></g><g id="gloss-right"><path id="path26" d="M 100,100 V 0 H 0 Z" style="fill:url(#Gradient_2);stroke:none"/></g><g id="gloss-left"><path id="path29" d="M 0,0 V 100 L 100,0 Z" style="fill:url(#Gradient_3);stroke:none"/></g><linearGradient id="background-gradient" x1="0" x2="0" y1="0" y2="1"><stop id="stop32" offset="0%" stop-color="#589632"/><stop id="stop34" offset="100%" stop-color="#9DDA77"/></linearGradient><g id="picture" transform="matrix(2.0746888,0,0,2.0746888,0,0.10373286)"><path id="path37" d="M 47.4,42.1 34.8,29.4 c 2,-3.1 3.1,-6.7 3.1,-10.4 0,-5.1 -2,-9.8 -5.5,-13.4 C 28.8,2 24,0 18.9,0 8.5,0 0,8.5 0,18.9 c 0,10.4 8.5,18.9 18.9,18.9 3.8,0 7.4,-1.1 10.4,-3.1 L 42,47.4 c 0.7,0.7 1.9,0.7 2.7,0 l 2.7,-2.7 c 0.8,-0.7 0.8,-1.9 0,-2.6 z M 28.8,28.8 C 26.2,31.4 22.7,32.9 19,32.9 11.3,32.9 5.1,26.7 5.1,19 5.1,11.3 11.3,5.1 19,5.1 c 3.7,0 7.2,1.4 9.8,4.1 2.6,2.6 4.1,6.1 4.1,9.8 -0.1,3.6 -1.5,7.1 -4.1,9.8 z"/></g><linearGradient id="picture-gradient" x1="0" x2="0" y1=".104" y2="99.611" gradientTransform="scale(1.0007822,0.99921844)" gradientUnits="userSpaceOnUse"><stop id="stop40" offset="0%" stop-color="#fff"/><stop id="stop42" offset="100%" stop-color="#e5eff9"/></linearGradient><linearGradient id="linearGradient3800" x1="0" x2="0" y1="0" y2="100" gradientUnits="userSpaceOnUse" xlink:href="#background-gradient"/></defs><use id="use47" width="100%" height="100%" x="0" y="0" transform="matrix(1.8978908,0,0,1.8978908,126.22705,11.934086)" xlink:href="#background" style="fill:url(#linearGradient3800)"/><g id="g53" mask="url(#mask)" transform="matrix(1.8978908,0,0,1.8978908,125.8963,11.934086)"><g id="g51" transform="matrix(-0.84,0,0,0.84,92,8)"><use id="use49" width="100%" height="100%" x="0" y="0" xlink:href="#picture" style="fill:url(#picture-gradient)"/></g></g><use id="use55" width="100%" height="100%" x="0" y="0" transform="matrix(1.8978908,0,0,1.8978908,126.22705,11.934086)" xlink:href="#gloss-left" style="opacity:1"/><path style="fill:#fff;fill-opacity:1;stroke:none;stroke-width:1.48272717px;stroke-linecap:butt;stroke-linejoin:miter;stroke-opacity:1" id="path5487" d="m 126.22705,11.934086 63.26303,11.86182 63.26303,-12.06286 63.26302,12.06286 v -11.86182 z"/><path style="fill:#fff;fill-opacity:1;stroke:none;stroke-width:1.48272717px;stroke-linecap:butt;stroke-linejoin:miter;stroke-opacity:1" id="path5489" d="m 126.22705,183.93045 63.26303,17.79272 63.26303,-17.79272 63.26302,17.79272 H 126.22705 Z"/><flowRoot id="flowRoot196" transform="matrix(1.690465,0,0,1.690465,-217.68402,134.54508)" xml:space="preserve" style="font-style:normal;font-weight:400;font-size:40px;line-height:1.25;font-family:sans-serif;letter-spacing:0;word-spacing:0;fill:#000;fill-opacity:1;stroke:none"><flowRegion id="flowRegion198"><rect id="rect200" width="506.576" height="60" x="159.458" y="44"/></flowRegion><flowPara id="flowPara202" style="font-style:normal;font-variant:normal;font-weight:700;font-stretch:normal;font-size:40px;font-family:Ubuntu;-inkscape-font-specification:'Ubuntu, Normal';font-variant-ligatures:normal;font-variant-caps:normal;font-variant-numeric:normal;font-feature-settings:normal;text-align:start;writing-mode:lr-tb;text-anchor:start">QuickOSM</flowPara></flowRoot></svg>